<?xml version="1.0" encoding="UTF-8"?>
<svg width="48" height="48" viewBox="0 -960 960 960" xmlns="http://www.w3.org/2000/svg">
<path d="m480.12-330q70.88 0 120.38-49.62 49.5-49.61 49.5-120.5 0-70.88-49.62-120.38t-120.5-49.5q-70.88 0-120.38 49.62t-49.5 120.5q0 70.88 49.62 120.38 49.61 49.5 120.5 49.5zm-0.36-58q-46.76 0-79.26-32.74-32.5-32.73-32.5-79.5 0-46.76 32.74-79.26 32.73-32.5 79.5-32.5 46.76 0 79.26 32.74 32.5 32.73 32.5 79.5 0 46.76-32.74 79.26-32.73 32.5-79.5 32.5zm0.24 188q-146 0-264-83t-176-217q58-134 176-217t264-83q146 0 264 83t176 217q-58 134-176 217t-264 83zm0-300m-0.17 240q121.17 0 222.67-65.5t154.5-174.5q-53-109-154.33-174.5t-222.5-65.5-222.67 65.5q-101.5 65.5-155.5 174.5 54 109 155.33 174.5t222.5 65.5z"/>
</svg>
