<?xml version="1.0" encoding="UTF-8"?>
<svg width="48" height="48" viewBox="0 -960 960 960" xmlns="http://www.w3.org/2000/svg">
<path d="m880-650h-320v-60h320v60zm-560 530q-75.53 0-128.76-53.23-53.24-53.25-53.24-128.77 0-49.1 24-91.55t66-68.45v-286q0-38.33 26.77-65.17 26.76-26.83 65-26.83 38.23 0 65.23 26.83 27 26.84 27 65.17v286q42 26 66 68.45t24 91.55q0 75.53-53.23 128.76-53.25 53.24-128.77 53.24zm0.12-59q50.88 0 86.38-35.88 35.5-35.87 35.5-87.12 0-37.81-18-70.4t-52-47.6l-20-9v-319q0-13.6-9.2-22.8t-22.8-9.2-22.8 9.2-9.2 22.8v319l-20 9q-34 15-52 47.6t-18 70.4q0 51.25 35.62 87.13 35.62 35.87 86.5 35.87z"/>
</svg>
